<svg width="30" height="30" viewBox="0 0 30 30" fill="none" xmlns="http://www.w3.org/2000/svg">
<path d="M26.0499 5.76258C25.4115 5.12384 24.6534 4.61714 23.8191 4.27144C22.9848 3.92574 22.0905 3.7478 21.1874 3.7478C20.2843 3.7478 19.39 3.92574 18.5557 4.27144C17.7214 4.61714 16.9634 5.12384 16.3249 5.76258L14.9999 7.08758L13.6749 5.76258C12.3853 4.47297 10.6362 3.74847 8.8124 3.74847C6.98861 3.74847 5.23952 4.47297 3.9499 5.76258C2.66029 7.0522 1.93579 8.80129 1.93579 10.6251C1.93579 12.4489 2.66029 14.198 3.9499 15.4876L5.2749 16.8126L14.9999 26.5376L24.7249 16.8126L26.0499 15.4876C26.6886 14.8491 27.1953 14.0911 27.541 13.2568C27.8868 12.4225 28.0647 11.5282 28.0647 10.6251C28.0647 9.72198 27.8868 8.82771 27.541 7.99339C27.1953 7.15907 26.6886 6.40103 26.0499 5.76258Z" stroke="white" stroke-width="2.30769" stroke-linecap="round" stroke-linejoin="round"/>
</svg>
