<svg width="142" height="72" viewBox="0 0 142 72" fill="none" xmlns="http://www.w3.org/2000/svg">
<circle cx="3.03371" cy="3.03371" r="3.03371" fill="white"/>
<circle cx="14.7641" cy="3.03371" r="3.03371" fill="white"/>
<circle cx="26.4943" cy="3.03371" r="3.03371" fill="white"/>
<circle cx="14.7641" cy="31.7527" r="3.03371" fill="white"/>
<circle cx="3.03371" cy="12.3369" r="3.03371" fill="white"/>
<circle cx="14.7641" cy="12.3369" r="3.03371" fill="white"/>
<circle cx="26.4943" cy="12.3369" r="3.03371" fill="white"/>
<circle cx="14.7641" cy="41.0559" r="3.03371" fill="white"/>
<circle cx="3.03371" cy="21.6404" r="3.03371" fill="white"/>
<circle cx="14.7641" cy="21.6404" r="3.03371" fill="white"/>
<circle cx="26.4943" cy="21.6404" r="3.03371" fill="white"/>
<circle cx="14.7641" cy="50.3591" r="3.03371" fill="white"/>
<circle cx="14.7641" cy="59.6629" r="3.03371" fill="white"/>
<circle cx="14.7641" cy="68.9658" r="3.03371" fill="white"/>
<circle cx="3.03371" cy="41.0559" r="3.03371" fill="white"/>
<circle cx="26.4943" cy="41.0559" r="3.03371" fill="white"/>
<circle cx="3.03371" cy="50.3591" r="3.03371" fill="white"/>
<circle cx="26.4943" cy="50.3591" r="3.03371" fill="white"/>
<path d="M48.3678 24.418V38.358L59.3158 24.418H63.2938L55.0658 34.856L63.4298 49H59.5538L52.8558 37.678L48.3678 43.356V49H45.0358V24.418H48.3678ZM70.7034 49.408C67.1334 49.408 65.0254 47.402 65.0254 44.376C65.0254 41.316 67.3034 39.412 71.2134 39.106L76.4494 38.698V38.222C76.4494 35.434 74.7834 34.448 72.5394 34.448C69.8534 34.448 68.3234 35.638 68.3234 37.644H65.5354C65.5354 34.176 68.3914 31.898 72.6754 31.898C76.7894 31.898 79.5774 34.074 79.5774 38.562V49H76.8574L76.5174 46.314C75.6674 48.218 73.3894 49.408 70.7034 49.408ZM71.6214 46.926C74.6474 46.926 76.4834 44.954 76.4834 41.826V40.942L72.2334 41.282C69.4114 41.554 68.2554 42.642 68.2554 44.274C68.2554 46.042 69.5474 46.926 71.6214 46.926ZM95.4955 32.374H98.6575V49H95.8015L95.4615 46.484C94.5095 48.218 92.2995 49.408 89.8515 49.408C85.9755 49.408 83.7995 46.79 83.7995 42.71V32.374H86.9955V41.656C86.9955 45.226 88.5255 46.586 90.9735 46.586C93.8975 46.586 95.4955 44.716 95.4955 41.146V32.374ZM101.603 44.172H104.663C104.663 45.872 105.955 46.892 108.063 46.892C110.307 46.892 111.599 45.974 111.599 44.444C111.599 43.322 111.055 42.642 109.321 42.2L106.397 41.52C103.439 40.806 102.045 39.344 102.045 36.896C102.045 33.836 104.629 31.898 108.301 31.898C111.939 31.898 114.319 33.938 114.387 37.1H111.327C111.259 35.434 110.137 34.38 108.199 34.38C106.193 34.38 105.071 35.264 105.071 36.794C105.071 37.916 105.887 38.664 107.519 39.072L110.443 39.786C113.265 40.466 114.659 41.758 114.659 44.24C114.659 47.402 111.939 49.408 107.995 49.408C104.085 49.408 101.603 47.334 101.603 44.172ZM121.467 49H118.271V23.976H121.467V49ZM124.573 56.446V53.828H126.715C128.245 53.828 129.469 53.59 130.251 51.482L130.829 49.884L124.131 32.374H127.497L132.325 45.77L137.255 32.374H140.553L132.699 52.74C131.577 55.596 129.911 56.786 127.361 56.786C126.307 56.786 125.423 56.65 124.573 56.446Z" fill="white"/>
</svg>
